HIERARCHY
ROOT Hips
{
  OFFSET 54.0064 85.1414 17.1402
  CHANNELS 6 Xposition Yposition Zposition Zrotation Xrotation Yrotation
  JOINT spine
  {
    OFFSET 0 6.3926 0.367606
    CHANNELS 3 Zrotation Xrotation Yrotation
    JOINT spine1
    {
      OFFSET 0 9.17611 0
      CHANNELS 3 Zrotation Xrotation Yrotation
      JOINT spine2
      {
        OFFSET 0 8.79238 0
        CHANNELS 3 Zrotation Xrotation Yrotation
        JOINT Neck
        {
          OFFSET 0 22.5737 1.07624
          CHANNELS 3 Zrotation Xrotation Yrotation
          JOINT Head
          {
            OFFSET 0 6.82011 0
            CHANNELS 3 Zrotation Xrotation Yrotation
            End Site
            {
              OFFSET 0 16.5085 -5.44427
            }
          }
        }
        JOINT RightShoulder
        {
          OFFSET -3.70221 9.49509 -0.515508
          CHANNELS 3 Zrotation Xrotation Yrotation
          JOINT RightArm
          {
            OFFSET 0 12.4537 0
            CHANNELS 3 Zrotation Xrotation Yrotation
            JOINT RightArmRoll
            {
              OFFSET 0 6.28686 0
              CHANNELS 3 Zrotation Xrotation Yrotation
              JOINT RightForeArm
              {
                OFFSET 0 18.3114 0
                CHANNELS 3 Zrotation Xrotation Yrotation
                JOINT RightForeArmRoll
                {
                  OFFSET 0 7.05483 0
                  CHANNELS 3 Zrotation Xrotation Yrotation
                  JOINT RightHand
                  {
                    OFFSET 0 14.1575 0
                    CHANNELS 3 Zrotation Xrotation Yrotation
                    End Site
                    {
                      OFFSET 0 0 0
                    }
                  }
                }
              }
            }
          }
        }
        JOINT LeftShoulder
        {
          OFFSET 3.70221 9.49509 -0.515508
          CHANNELS 3 Zrotation Xrotation Yrotation
          JOINT LeftArm
          {
            OFFSET 0 12.4537 0
            CHANNELS 3 Zrotation Xrotation Yrotation
            JOINT LeftArmRoll
            {
              OFFSET 0 6.28686 0
              CHANNELS 3 Zrotation Xrotation Yrotation
              JOINT LeftForeArm
              {
                OFFSET 0 18.3114 0
                CHANNELS 3 Zrotation Xrotation Yrotation
                JOINT LeftForeArmRoll
                {
                  OFFSET 0 7.05483 0
                  CHANNELS 3 Zrotation Xrotation Yrotation
                  JOINT LeftHand
                  {
                    OFFSET 0 14.1575 0
                    CHANNELS 3 Zrotation Xrotation Yrotation
                    End Site
                    {
                      OFFSET 0 0 0
                    }
                  }
                }
              }
            }
          }
        }
      }
    }
  }
  JOINT RightUpLeg
  {
    OFFSET -5.66616 -1.03903 -0.87161
    CHANNELS 3 Zrotation Xrotation Yrotation
    JOINT RightUpLegRoll
    {
      OFFSET 0 16.6005 0
      CHANNELS 3 Zrotation Xrotation Yrotation
      JOINT RightLeg
      {
        OFFSET 0 -20.5572 0
        CHANNELS 3 Zrotation Xrotation Yrotation
        JOINT RightLegRoll
        {
          OFFSET 0 20.6244 0
          CHANNELS 3 Zrotation Xrotation Yrotation
          JOINT RightFoot
          {
            OFFSET 0 17.1664 0
            CHANNELS 3 Zrotation Xrotation Yrotation
            JOINT RightToeBase
            {
              OFFSET 0 14.3502 0
              CHANNELS 3 Zrotation Xrotation Yrotation
              End Site
              {
                OFFSET 0.00608252 6.94971 -0.801061
              }
            }
          }
        }
      }
    }
  }
  JOINT LeftUpLeg
  {
    OFFSET 5.66616 -1.03903 -0.87161
    CHANNELS 3 Zrotation Xrotation Yrotation
    JOINT LeftUpLegRoll
    {
      OFFSET 0 16.6006 0
      CHANNELS 3 Zrotation Xrotation Yrotation
      JOINT LeftLeg
      {
        OFFSET 0 20.5571 0
        CHANNELS 3 Zrotation Xrotation Yrotation
        JOINT LeftLegRoll
        {
          OFFSET 0 20.8151 0
          CHANNELS 3 Zrotation Xrotation Yrotation
          JOINT LeftFoot
          {
            OFFSET 0 16.9757 0
            CHANNELS 3 Zrotation Xrotation Yrotation
            JOINT LeftToeBase
            {
              OFFSET 0 14.3502 0
              CHANNELS 3 Zrotation Xrotation Yrotation
              End Site
              {
                OFFSET -0.0272592 6.94971 -0.80106
              }
            }
          }
        }
      }
    }
  }
}
MOTION
Frames: 4
Frame Time: 0.00208333
50.5492 85.8763 14.8049 -2.13594 -3.84329 -2.03938 0.0820379 -0.968404 -0.00868987 0.171853 2.06597 -0.0152419 0.172271 3.71105 -0.0181918 1.59053 9.71195 0.306114 0.283898 4.78974 0.797574 58.9192 -3.70515 -2.27686 110.651 13.7768 4.79305 -1.49484e-007 -8.44618e-007 -4.05209e-006 13.2927 7.61697 -1.37835 -6.50481e-007 -4.96401e-006 -2.99999 8.02888 -4.95144 0.697699 -52.9935 -3.4243 1.59254 -109.526 13.6463 -1.01015 -1.28315e-006 8.95173e-007 5.55673e-006 -11.1069 7.12428 1.25217 -5.12339e-006 -1.00348e-006 3 -8.02889 -4.95143 -0.697681 176.197 -3.40385 0.627878 180 7.01526e-015 178.836 177.007 4.7434 179.775 -6.74829e-008 -6.68015e-007 0.043605 -18.6996 67.96 19.4994 8.13626 25.2327 -3.48764 -173.381 -4.41363 -0.863177 4.54188e-006 -4.6773e-006 -1.18429 -1.48047 -5.24268 0.364231 5.45647e-007 -1.92831e-007 -0.0718436 19.3322 68.969 -20.3938 -8.13651 25.2329 3.47999 
50.547 85.8749 14.8045 -2.13426 -3.84368 -2.04042 0.0824008 -0.968398 -0.00798693 0.172052 2.06599 -0.0145022 0.172456 3.71107 -0.0174503 1.59223 9.70522 0.304248 0.282785 4.8 0.795871 58.9148 -3.7067 -2.27747 110.659 13.7736 4.76949 -1.49484e-007 -8.44618e-007 -4.05209e-006 13.3036 7.65093 -1.38268 -6.50481e-007 -4.96401e-006 -2.99999 8.02888 -4.95144 0.697699 -52.995 -3.42746 1.59488 -109.525 13.6551 -1.00491 -1.28315e-006 8.95173e-007 5.55673e-006 -11.1094 7.11774 1.25169 -5.12339e-006 -1.00348e-006 3 -8.02889 -4.95143 -0.697681 176.193 -3.40165 0.632067 180 7.01526e-015 178.836 177.003 4.74529 179.775 -6.74829e-008 -6.68015e-007 0.043605 -18.6991 67.9594 19.4989 8.13626 25.2327 -3.48764 -173.383 -4.41465 -0.861645 4.54188e-006 -4.6773e-006 -1.18429 -1.48003 -5.24034 0.364427 5.45647e-007 -1.92831e-007 -0.0718436 19.3304 68.9678 -20.3909 -8.13651 25.2329 3.47999 
50.5497 85.8775 14.8034 -2.13254 -3.84406 -2.04137 0.0827816 -0.96839 -0.00725011 0.17228 2.066 -0.0137346 0.17267 3.71108 -0.0166811 1.59423 9.69838 0.302215 0.28149 4.81043 0.794071 58.9104 -3.70837 -2.27816 110.666 13.7706 4.74638 -1.49484e-007 -8.44618e-007 -4.05209e-006 13.3143 7.68419 -1.38692 -6.50481e-007 -4.96401e-006 -2.99999 8.02888 -4.95144 0.697699 -52.9965 -3.4306 1.5972 -109.524 13.6641 -0.999491 -1.28315e-006 8.95173e-007 5.55673e-006 -11.1119 7.11096 1.25116 -5.12339e-006 -1.00348e-006 3 -8.02889 -4.95143 -0.697681 176.188 -3.3994 0.636225 180 7.01526e-015 178.836 176.999 4.74722 179.776 -6.74829e-008 -6.68015e-007 0.043605 -18.6986 67.9589 19.4984 8.13626 25.2327 -3.48764 -173.385 -4.41564 -0.860066 4.54188e-006 -4.6773e-006 -1.18429 -1.47958 -5.23799 0.364671 5.45647e-007 -1.92831e-007 -0.0718436 19.3285 68.9665 -20.388 -8.13651 25.2329 3.47999 
50.5696 85.8732 14.8029 -2.1308 -3.84441 -2.04227 0.0831751 -0.968382 -0.00648958 0.172529 2.06602 -0.0129474 0.172904 3.7111 -0.0158925 1.59643 9.69147 0.300065 0.280067 4.82098 0.792202 58.9061 -3.71013 -2.2789 110.674 13.7676 4.7236 -1.49484e-007 -8.44618e-007 -4.05209e-006 13.3249 7.71695 -1.39109 -6.50481e-007 -4.96401e-006 -2.99999 8.02888 -4.95144 0.697699 -52.998 -3.43373 1.59952 -109.523 13.6732 -0.99394 -1.28315e-006 8.95173e-007 5.55673e-006 -11.1146 7.10402 1.2506 -5.12339e-006 -1.00348e-006 3 -8.02889 -4.95143 -0.697681 176.184 -3.3971 0.640362 180 7.01526e-015 178.836 176.995 4.74914 179.776 -6.74829e-008 -6.68015e-007 0.043605 -18.6981 67.9583 19.4978 8.13626 25.2327 -3.48764 -173.388 -4.41661 -0.858454 4.54188e-006 -4.6773e-006 -1.18429 -1.47912 -5.23561 0.364948 5.45647e-007 -1.92831e-007 -0.0718436 19.3266 68.9652 -20.385 -8.13651 25.2329 3.47999 
